<svg id="SVG_Long" data-name="SVG Long" xmlns="http://www.w3.org/2000/svg" viewBox="0 0 365.63 109.27"><defs><style>.cls-1{fill:#fff;stroke:#231f20;stroke-miterlimit:10;}.cls-2{fill:#414042;}.cls-3{fill:#a41f35;}</style></defs><rect class="cls-1" x="0.5" y="0.5" width="364.63" height="108.27"/><g id="text"><rect class="cls-2" x="117.38" y="19.8" width="39.06" height="15.63"/><rect class="cls-2" x="41.21" y="19.8" width="15.63" height="50.78"/><rect class="cls-2" x="66.6" y="19.8" width="15.63" height="74.22"/><rect class="cls-2" x="15.82" y="19.8" width="15.63" height="74.22"/><rect class="cls-2" x="117.38" y="45.19" width="15.63" height="48.83"/><rect class="cls-2" x="91.99" y="19.8" width="15.63" height="15.63"/><rect class="cls-3" x="91.99" y="45.19" width="15.63" height="48.83"/><path class="cls-2" d="M1582.14,172.06a11,11,0,0,0,9-4.35l4.78,4.93q-5.69,6.41-13.41,6.4a17.45,17.45,0,0,1-12.72-4.87,17.65,17.65,0,0,1,.1-24.72,17.12,17.12,0,0,1,12.45-5,17.62,17.62,0,0,1,13.77,6.27l-4.63,5.26a10.85,10.85,0,0,0-8.8-4.4,10.22,10.22,0,0,0-7.2,2.75,9.58,9.58,0,0,0-3,7.41,10.11,10.11,0,0,0,2.82,7.48A9.33,9.33,0,0,0,1582.14,172.06Z" transform="translate(-1387.07 -124.75)"/><path class="cls-2" d="M1615.18,159.25a5.44,5.44,0,0,0-4.78,2.27,10.32,10.32,0,0,0-1.58,6v11.14h-7.17V152.94h7.17v3.39a12.26,12.26,0,0,1,3.47-2.68,9.45,9.45,0,0,1,4.23-1.14l0,6.74Z" transform="translate(-1387.07 -124.75)"/><path class="cls-2" d="M1622.47,149.66a4.27,4.27,0,1,1,3,1.22A4.06,4.06,0,0,1,1622.47,149.66Zm6.58,29h-7.17V152.94h7.17Z" transform="translate(-1387.07 -124.75)"/><path class="cls-2" d="M1658.62,149.66a4.27,4.27,0,1,1,3,1.22A4.07,4.07,0,0,1,1658.62,149.66Zm6.58,29H1658V152.94h7.17Z" transform="translate(-1387.07 -124.75)"/><path class="cls-2" d="M1684.9,172.68q3.58,0,6.45-3.58l4.26,4.78q-5,5.16-10.76,5.16a14,14,0,0,1-9.78-3.65,13.46,13.46,0,0,1,0-19.18,13.7,13.7,0,0,1,9.59-3.7,15,15,0,0,1,5.62,1.14,14.26,14.26,0,0,1,5,3.4l-3.73,4.88a8.48,8.48,0,0,0-3-2.3,8.65,8.65,0,0,0-3.57-.81,7,7,0,0,0-4.85,1.84,7.43,7.43,0,0,0,0,10.21A6.9,6.9,0,0,0,1684.9,172.68Z" transform="translate(-1387.07 -124.75)"/><path class="cls-2" d="M1737.11,178.66h-7.17V143.18h7.17Z" transform="translate(-1387.07 -124.75)"/><path class="cls-2" d="M1592.33,189.71q4.77,4.38,4.78,12.17t-4.66,12.34q-4.67,4.54-14.23,4.54h-11.43V185.34h11.81Q1587.54,185.34,1592.33,189.71Zm-5.48,19.87q2.75-2.58,2.75-7.51t-2.75-7.58q-2.74-2.66-8.44-2.65h-4.16v20.32H1579Q1584.11,212.16,1586.85,209.58Z" transform="translate(-1387.07 -124.75)"/><path class="cls-2" d="M1715.61,178.21a7.45,7.45,0,0,1-.68-2.26,8.16,8.16,0,0,1-6.37,2.73,8.91,8.91,0,0,1-6.15-2.15,6.88,6.88,0,0,1-2.44-5.41,7.16,7.16,0,0,1,3-6.17q3-2.14,8.61-2.17h3.1v-1.45a4.17,4.17,0,0,0-.9-2.8,3.53,3.53,0,0,0-2.83-1.05,4,4,0,0,0-2.68.82,2.78,2.78,0,0,0-1,2.24h-6.74a6.78,6.78,0,0,1,1.35-4.06,8.91,8.91,0,0,1,3.83-2.93,13.92,13.92,0,0,1,5.56-1.06,11,11,0,0,1,7.41,2.34,8.21,8.21,0,0,1,2.74,6.6v10.95a12.06,12.06,0,0,0,1,5.44v.39Zm-5.58-4.69a5.82,5.82,0,0,0,2.75-.66,4.33,4.33,0,0,0,1.87-1.79v-4.34h-2.52c-3.38,0-5.17,1.16-5.39,3.5l0,.4a2.69,2.69,0,0,0,.89,2.07A3.42,3.42,0,0,0,1710,173.52Z" transform="translate(-1387.07 -124.75)"/><path class="cls-2" d="M1617.68,218.31a7.75,7.75,0,0,1-.68-2.26,8.14,8.14,0,0,1-6.37,2.73,8.94,8.94,0,0,1-6.15-2.15,6.88,6.88,0,0,1-2.44-5.41,7.15,7.15,0,0,1,3-6.17q3-2.15,8.6-2.17h3.1v-1.45a4.16,4.16,0,0,0-.89-2.8,3.55,3.55,0,0,0-2.84-1,4,4,0,0,0-2.67.82,2.75,2.75,0,0,0-1,2.24h-6.75a6.78,6.78,0,0,1,1.35-4.06,9,9,0,0,1,3.83-2.93,13.92,13.92,0,0,1,5.56-1.06,11,11,0,0,1,7.41,2.34,8.22,8.22,0,0,1,2.75,6.6v10.95a12.08,12.08,0,0,0,1,5.44v.39Zm-5.58-4.69a5.86,5.86,0,0,0,2.76-.66,4.35,4.35,0,0,0,1.86-1.79v-4.34h-2.52q-5.06,0-5.39,3.5l0,.4a2.68,2.68,0,0,0,.88,2.07A3.44,3.44,0,0,0,1612.1,213.62Z" transform="translate(-1387.07 -124.75)"/><path class="cls-2" d="M1668,218.31a7.46,7.46,0,0,1-.67-2.26,8.18,8.18,0,0,1-6.38,2.73,8.94,8.94,0,0,1-6.15-2.15,6.88,6.88,0,0,1-2.44-5.41,7.15,7.15,0,0,1,3-6.17q3-2.15,8.6-2.17h3.11v-1.45a4.17,4.17,0,0,0-.9-2.8,3.55,3.55,0,0,0-2.84-1,4,4,0,0,0-2.67.82,2.75,2.75,0,0,0-1,2.24H1653a6.73,6.73,0,0,1,1.36-4.06,8.91,8.91,0,0,1,3.83-2.93,13.91,13.91,0,0,1,5.55-1.06,11.05,11.05,0,0,1,7.42,2.34,8.24,8.24,0,0,1,2.74,6.6v10.95a12.08,12.08,0,0,0,1,5.44v.39Zm-5.58-4.69a5.86,5.86,0,0,0,2.76-.66,4.44,4.44,0,0,0,1.87-1.79v-4.34h-2.52q-5.07,0-5.4,3.5l0,.4a2.69,2.69,0,0,0,.89,2.07A3.41,3.41,0,0,0,1662.45,213.62Z" transform="translate(-1387.07 -124.75)"/><path class="cls-2" d="M1640.11,187.2v6.21h4.32v5h-4.32V211a3,3,0,0,0,.53,2,2.74,2.74,0,0,0,2.06.61,10.51,10.51,0,0,0,2-.17v5.12a14,14,0,0,1-4.08.6q-7.1,0-7.24-7.16V198.36h-3.69v-5h3.69V187.2Z" transform="translate(-1387.07 -124.75)"/><path class="cls-2" d="M1645.18,146.67v6.21h4.32v5h-4.32v12.61a3.08,3.08,0,0,0,.53,2,2.74,2.74,0,0,0,2.06.6,10.65,10.65,0,0,0,2-.16V178a13.67,13.67,0,0,1-4.08.61q-7.11,0-7.24-7.17V157.83h-3.69v-5h3.69v-6.21Z" transform="translate(-1387.07 -124.75)"/></g></svg>