<svg id="SVG_website" data-name="SVG website" xmlns="http://www.w3.org/2000/svg" viewBox="0 0 729.5 75.22"><defs><style>.cls-1{fill:#fff;stroke:#666766;}.cls-1,.cls-2,.cls-3{stroke-miterlimit:10;}.cls-2{fill:#bbb;stroke:#fff;}.cls-3{fill:#a41f35;stroke:#f9f9fa;}</style></defs><g id="Layer_17" data-name="Layer 17"><path class="cls-1" d="M2212.57,208.85a21.2,21.2,0,0,0,17.32-8.38l9.21,9.49q-11,12.35-25.84,12.35t-24.5-9.4q-9.63-9.41-9.63-23.72t9.81-23.91a33,33,0,0,1,24-9.58,34,34,0,0,1,26.53,12.06l-8.93,10.14q-6.83-8.47-17-8.48a19.76,19.76,0,0,0-13.86,5.3Q2194,180,2194,189t5.44,14.42A17.93,17.93,0,0,0,2212.57,208.85Z" transform="translate(-2016.96 -150)"/><path class="cls-1" d="M2276.23,184.16q-6.17,0-9.21,4.38t-3,11.56v21.47h-13.82V172H2264v6.54a23.48,23.48,0,0,1,6.68-5.16,18.29,18.29,0,0,1,8.15-2.21l.09,13Z" transform="translate(-2016.96 -150)"/><path class="cls-1" d="M2290.28,165.69A8.23,8.23,0,1,1,2296,168,7.81,7.81,0,0,1,2290.28,165.69ZM2303,221.57h-13.82V172H2303Z" transform="translate(-2016.96 -150)"/><path class="cls-1" d="M2359.93,165.69a8.22,8.22,0,1,1,5.76,2.35A7.81,7.81,0,0,1,2359.93,165.69Zm12.67,55.88h-13.82V172h13.82Z" transform="translate(-2016.96 -150)"/><path class="cls-1" d="M2410.55,210.05q6.91,0,12.44-6.91l8.2,9.22q-9.58,9.94-20.73,9.95a26.87,26.87,0,0,1-18.84-7.05q-7.7-7-7.69-18.43t7.78-18.52a26.41,26.41,0,0,1,18.47-7.14,28.88,28.88,0,0,1,10.83,2.21,27.53,27.53,0,0,1,9.63,6.55l-7.19,9.39a17.09,17.09,0,0,0-12.71-6,13.45,13.45,0,0,0-9.35,3.54q-3.93,3.56-3.92,9.86t3.92,9.81A13.27,13.27,0,0,0,2410.55,210.05Z" transform="translate(-2016.96 -150)"/><path class="cls-1" d="M2511.16,221.57h-13.82V153.21h13.82Z" transform="translate(-2016.96 -150)"/><path class="cls-1" d="M2587,164.86q9.21,8.43,9.21,23.45t-9,23.77q-9,8.74-27.41,8.75h-22v-64.4h22.75Q2577.75,156.43,2587,164.86Zm-10.55,38.28q5.3-5,5.29-14.46t-5.29-14.61q-5.31-5.1-16.26-5.11h-8v39.16h9.12Q2571.11,208.12,2576.41,203.14Z" transform="translate(-2016.96 -150)"/><path class="cls-1" d="M2469.73,220.71a14.47,14.47,0,0,1-1.31-4.37,15.73,15.73,0,0,1-12.28,5.27,17.26,17.26,0,0,1-11.85-4.14,13.3,13.3,0,0,1-4.7-10.44q0-7.74,5.73-11.87T2461.9,191h6v-2.79a8,8,0,0,0-1.73-5.39c-1.15-1.35-3-2-5.47-2a7.75,7.75,0,0,0-5.15,1.58,5.35,5.35,0,0,0-1.86,4.31h-13a13.11,13.11,0,0,1,2.6-7.82,17.3,17.3,0,0,1,7.38-5.65,27,27,0,0,1,10.71-2.05q9,0,14.28,4.53t5.29,12.7v21.1q0,6.93,1.93,10.48v.77Zm-10.76-9a11.15,11.15,0,0,0,5.31-1.29,8.39,8.39,0,0,0,3.6-3.44v-8.36H2463q-9.75,0-10.39,6.74l0,.77a5.2,5.2,0,0,0,1.71,4A6.64,6.64,0,0,0,2459,211.67Z" transform="translate(-2016.96 -150)"/><path class="cls-1" d="M2635.81,220a14.4,14.4,0,0,1-1.31-4.36,15.72,15.72,0,0,1-12.28,5.26,17.26,17.26,0,0,1-11.85-4.14,13.29,13.29,0,0,1-4.7-10.43q0-7.74,5.73-11.88t16.58-4.18h6v-2.79a8,8,0,0,0-1.73-5.4c-1.15-1.35-3-2-5.46-2a7.78,7.78,0,0,0-5.16,1.58,5.36,5.36,0,0,0-1.86,4.32h-13a13.06,13.06,0,0,1,2.61-7.83,17.26,17.26,0,0,1,7.37-5.65,27,27,0,0,1,10.71-2q9,0,14.28,4.52t5.29,12.71v21.09q0,6.93,1.93,10.49V220Zm-10.75-9a11.22,11.22,0,0,0,5.3-1.28,8.45,8.45,0,0,0,3.6-3.44v-8.37h-4.86q-9.75,0-10.39,6.75l0,.76a5.2,5.2,0,0,0,1.71,4A6.64,6.64,0,0,0,2625.06,210.93Z" transform="translate(-2016.96 -150)"/><path class="cls-1" d="M2732.82,220a14.41,14.41,0,0,1-1.3-4.36,15.72,15.72,0,0,1-12.28,5.26,17.3,17.3,0,0,1-11.86-4.14,13.32,13.32,0,0,1-4.7-10.43q0-7.74,5.74-11.88t16.58-4.18h6v-2.79a8,8,0,0,0-1.73-5.4q-1.74-2-5.47-2a7.75,7.75,0,0,0-5.15,1.58,5.37,5.37,0,0,0-1.87,4.32h-13a13.06,13.06,0,0,1,2.61-7.83,17.3,17.3,0,0,1,7.38-5.65,27,27,0,0,1,10.71-2q9,0,14.28,4.52t5.28,12.71v21.09q0,6.93,1.94,10.49V220Zm-10.75-9a11.26,11.26,0,0,0,5.31-1.28,8.45,8.45,0,0,0,3.6-3.44v-8.37h-4.86q-9.76,0-10.39,6.75l-.05.76a5.2,5.2,0,0,0,1.71,4A6.64,6.64,0,0,0,2722.07,210.93Z" transform="translate(-2016.96 -150)"/><path class="cls-1" d="M2679,160v12h8.32v9.54H2679v24.29a5.8,5.8,0,0,0,1,3.87q1,1.17,4,1.17a20.71,20.71,0,0,0,3.82-.31v9.85a26.74,26.74,0,0,1-7.87,1.17q-13.68,0-13.94-13.81V181.53h-7.11V172H2666V160Z" transform="translate(-2016.96 -150)"/><path class="cls-1" d="M2334,159.93v12h8.32v9.54H2334v24.29a5.8,5.8,0,0,0,1,3.87q1,1.17,4,1.17a20.77,20.77,0,0,0,3.83-.32v9.85a26.81,26.81,0,0,1-7.88,1.17q-13.66,0-13.94-13.81V181.44h-7.11V171.9H2321v-12Z" transform="translate(-2016.96 -150)"/></g><rect class="cls-2" x="102.06" y="0.5" width="39.06" height="15.63"/><rect class="cls-2" x="25.89" y="0.5" width="15.63" height="50.78"/><rect class="cls-2" x="51.28" y="0.5" width="15.63" height="74.22"/><rect class="cls-2" x="0.5" y="0.5" width="15.63" height="74.22"/><rect class="cls-2" x="102.06" y="25.89" width="15.63" height="48.83"/><rect class="cls-2" x="76.67" y="0.5" width="15.63" height="15.63"/><rect class="cls-3" x="76.67" y="25.89" width="15.63" height="48.83"/></svg>